{
	"asset":{
		"generator":"Khronos glTF Blender I/O v4.4.56",
		"version":"2.0"
	},
	"scene":0,
	"scenes":[
		{
			"name":"Scene",
			"nodes":[
				0,
				1,
				2,
				3,
				4,
				5,
				6
			]
		}
	],
	"nodes":[
		{
			"mesh":0,
			"name":"ConveyorBelt",
			"scale":[
				1,
				0.05000000074505806,
				0.30000001192092896
			],
			"translation":[
				0,
				0.05000000074505806,
				0
			]
		},
		{
			"mesh":1,
			"name":"LeftRoller",
			"rotation":[
				0.7071068286895752,
				0,
				0,
				0.7071068286895752
			],
			"translation":[
				-1,
				0.05000000074505806,
				0
			]
		},
		{
			"mesh":2,
			"name":"RightRoller",
			"rotation":[
				0.7071068286895752,
				0,
				0,
				0.7071068286895752
			],
			"translation":[
				1,
				0.05000000074505806,
				0
			]
		},
		{
			"mesh":3,
			"name":"Support_-1.0_-0.25",
			"scale":[
				0.05000000074505806,
				0.10000000149011612,
				0.05000000074505806
			],
			"translation":[
				-1,
				0.10000000149011612,
				0.25
			]
		},
		{
			"mesh":4,
			"name":"Support_-1.0_0.25",
			"scale":[
				0.05000000074505806,
				0.10000000149011612,
				0.05000000074505806
			],
			"translation":[
				-1,
				0.10000000149011612,
				-0.25
			]
		},
		{
			"mesh":5,
			"name":"Support_1.0_-0.25",
			"scale":[
				0.05000000074505806,
				0.10000000149011612,
				0.05000000074505806
			],
			"translation":[
				1,
				0.10000000149011612,
				0.25
			]
		},
		{
			"mesh":6,
			"name":"Support_1.0_0.25",
			"scale":[
				0.05000000074505806,
				0.10000000149011612,
				0.05000000074505806
			],
			"translation":[
				1,
				0.10000000149011612,
				-0.25
			]
		}
	],
	"materials":[
		{
			"doubleSided":true,
			"name":"BeltMaterial",
			"pbrMetallicRoughness":{
				"baseColorFactor":[
					0.10000000149011612,
					0.10000000149011612,
					0.10000000149011612,
					1
				],
				"metallicFactor":0,
				"roughnessFactor":0.4000000059604645
			}
		},
		{
			"doubleSided":true,
			"name":"RollerMaterial",
			"pbrMetallicRoughness":{
				"baseColorFactor":[
					0.30000001192092896,
					0.30000001192092896,
					0.30000001192092896,
					1
				],
				"metallicFactor":0,
				"roughnessFactor":0.4000000059604645
			}
		}
	],
	"meshes":[
		{
			"name":"\u7acb\u65b9\u9ad4.001",
			"primitives":[
				{
					"attributes":{
						"POSITION":0,
						"NORMAL":1,
						"TEXCOORD_0":2,
						"COLOR_0":3,
						"COLOR_1":4
					},
					"indices":5,
					"material":0
				}
			]
		},
		{
			"name":"\u5713\u67f1\u9ad4",
			"primitives":[
				{
					"attributes":{
						"POSITION":6,
						"NORMAL":7,
						"TEXCOORD_0":8
					},
					"indices":9,
					"material":1
				}
			]
		},
		{
			"name":"\u5713\u67f1\u9ad4.001",
			"primitives":[
				{
					"attributes":{
						"POSITION":10,
						"NORMAL":11,
						"TEXCOORD_0":12
					},
					"indices":9,
					"material":1
				}
			]
		},
		{
			"name":"\u7acb\u65b9\u9ad4.002",
			"primitives":[
				{
					"attributes":{
						"POSITION":13,
						"NORMAL":14,
						"TEXCOORD_0":15
					},
					"indices":16
				}
			]
		},
		{
			"name":"\u7acb\u65b9\u9ad4.003",
			"primitives":[
				{
					"attributes":{
						"POSITION":17,
						"NORMAL":18,
						"TEXCOORD_0":19
					},
					"indices":16
				}
			]
		},
		{
			"name":"\u7acb\u65b9\u9ad4.004",
			"primitives":[
				{
					"attributes":{
						"POSITION":20,
						"NORMAL":21,
						"TEXCOORD_0":22
					},
					"indices":16
				}
			]
		},
		{
			"name":"\u7acb\u65b9\u9ad4.005",
			"primitives":[
				{
					"attributes":{
						"POSITION":23,
						"NORMAL":24,
						"TEXCOORD_0":25
					},
					"indices":16
				}
			]
		}
	],
	"accessors":[
		{
			"bufferView":0,
			"componentType":5126,
			"count":24,
			"max":[
				1.0380661487579346,
				2.5131607055664062,
				0.5
			],
			"min":[
				-1.0283771753311157,
				1.4688823223114014,
				-0.5
			],
			"type":"VEC3"
		},
		{
			"bufferView":1,
			"componentType":5126,
			"count":24,
			"type":"VEC3"
		},
		{
			"bufferView":2,
			"componentType":5126,
			"count":24,
			"type":"VEC2"
		},
		{
			"bufferView":3,
			"componentType":5121,
			"count":24,
			"normalized":true,
			"type":"VEC4"
		},
		{
			"bufferView":4,
			"componentType":5123,
			"count":24,
			"normalized":true,
			"type":"VEC4"
		},
		{
			"bufferView":5,
			"componentType":5123,
			"count":36,
			"type":"SCALAR"
		},
		{
			"bufferView":6,
			"componentType":5126,
			"count":192,
			"max":[
				0.05000000074505806,
				0.30000001192092896,
				0.05000000074505806
			],
			"min":[
				-0.05000000074505806,
				-0.30000001192092896,
				-0.05000000074505806
			],
			"type":"VEC3"
		},
		{
			"bufferView":7,
			"componentType":5126,
			"count":192,
			"type":"VEC3"
		},
		{
			"bufferView":8,
			"componentType":5126,
			"count":192,
			"type":"VEC2"
		},
		{
			"bufferView":9,
			"componentType":5123,
			"count":372,
			"type":"SCALAR"
		},
		{
			"bufferView":10,
			"componentType":5126,
			"count":192,
			"max":[
				0.05000000074505806,
				0.30000001192092896,
				0.05000000074505806
			],
			"min":[
				-0.05000000074505806,
				-0.30000001192092896,
				-0.05000000074505806
			],
			"type":"VEC3"
		},
		{
			"bufferView":11,
			"componentType":5126,
			"count":192,
			"type":"VEC3"
		},
		{
			"bufferView":12,
			"componentType":5126,
			"count":192,
			"type":"VEC2"
		},
		{
			"bufferView":13,
			"componentType":5126,
			"count":24,
			"max":[
				0.5,
				0.5,
				0.5
			],
			"min":[
				-0.5,
				-0.5,
				-0.5
			],
			"type":"VEC3"
		},
		{
			"bufferView":14,
			"componentType":5126,
			"count":24,
			"type":"VEC3"
		},
		{
			"bufferView":15,
			"componentType":5126,
			"count":24,
			"type":"VEC2"
		},
		{
			"bufferView":16,
			"componentType":5123,
			"count":36,
			"type":"SCALAR"
		},
		{
			"bufferView":17,
			"componentType":5126,
			"count":24,
			"max":[
				0.5,
				0.5,
				0.5
			],
			"min":[
				-0.5,
				-0.5,
				-0.5
			],
			"type":"VEC3"
		},
		{
			"bufferView":18,
			"componentType":5126,
			"count":24,
			"type":"VEC3"
		},
		{
			"bufferView":19,
			"componentType":5126,
			"count":24,
			"type":"VEC2"
		},
		{
			"bufferView":20,
			"componentType":5126,
			"count":24,
			"max":[
				0.5,
				0.5,
				0.5
			],
			"min":[
				-0.5,
				-0.5,
				-0.5
			],
			"type":"VEC3"
		},
		{
			"bufferView":21,
			"componentType":5126,
			"count":24,
			"type":"VEC3"
		},
		{
			"bufferView":22,
			"componentType":5126,
			"count":24,
			"type":"VEC2"
		},
		{
			"bufferView":23,
			"componentType":5126,
			"count":24,
			"max":[
				0.5,
				0.5,
				0.5
			],
			"min":[
				-0.5,
				-0.5,
				-0.5
			],
			"type":"VEC3"
		},
		{
			"bufferView":24,
			"componentType":5126,
			"count":24,
			"type":"VEC3"
		},
		{
			"bufferView":25,
			"componentType":5126,
			"count":24,
			"type":"VEC2"
		}
	],
	"bufferViews":[
		{
			"buffer":0,
			"byteLength":288,
			"byteOffset":0,
			"target":34962
		},
		{
			"buffer":0,
			"byteLength":288,
			"byteOffset":288,
			"target":34962
		},
		{
			"buffer":0,
			"byteLength":192,
			"byteOffset":576,
			"target":34962
		},
		{
			"buffer":0,
			"byteLength":96,
			"byteOffset":768,
			"target":34962
		},
		{
			"buffer":0,
			"byteLength":192,
			"byteOffset":864,
			"target":34962
		},
		{
			"buffer":0,
			"byteLength":72,
			"byteOffset":1056,
			"target":34963
		},
		{
			"buffer":0,
			"byteLength":2304,
			"byteOffset":1128,
			"target":34962
		},
		{
			"buffer":0,
			"byteLength":2304,
			"byteOffset":3432,
			"target":34962
		},
		{
			"buffer":0,
			"byteLength":1536,
			"byteOffset":5736,
			"target":34962
		},
		{
			"buffer":0,
			"byteLength":744,
			"byteOffset":7272,
			"target":34963
		},
		{
			"buffer":0,
			"byteLength":2304,
			"byteOffset":8016,
			"target":34962
		},
		{
			"buffer":0,
			"byteLength":2304,
			"byteOffset":10320,
			"target":34962
		},
		{
			"buffer":0,
			"byteLength":1536,
			"byteOffset":12624,
			"target":34962
		},
		{
			"buffer":0,
			"byteLength":288,
			"byteOffset":14160,
			"target":34962
		},
		{
			"buffer":0,
			"byteLength":288,
			"byteOffset":14448,
			"target":34962
		},
		{
			"buffer":0,
			"byteLength":192,
			"byteOffset":14736,
			"target":34962
		},
		{
			"buffer":0,
			"byteLength":72,
			"byteOffset":14928,
			"target":34963
		},
		{
			"buffer":0,
			"byteLength":288,
			"byteOffset":15000,
			"target":34962
		},
		{
			"buffer":0,
			"byteLength":288,
			"byteOffset":15288,
			"target":34962
		},
		{
			"buffer":0,
			"byteLength":192,
			"byteOffset":15576,
			"target":34962
		},
		{
			"buffer":0,
			"byteLength":288,
			"byteOffset":15768,
			"target":34962
		},
		{
			"buffer":0,
			"byteLength":288,
			"byteOffset":16056,
			"target":34962
		},
		{
			"buffer":0,
			"byteLength":192,
			"byteOffset":16344,
			"target":34962
		},
		{
			"buffer":0,
			"byteLength":288,
			"byteOffset":16536,
			"target":34962
		},
		{
			"buffer":0,
			"byteLength":288,
			"byteOffset":16824,
			"target":34962
		},
		{
			"buffer":0,
			"byteLength":192,
			"byteOffset":17112,
			"target":34962
		}
	],
	"buffers":[
		{
			"byteLength":17304,
			"uri":"conveyor.bin"
		}
	]
}
